<svg width="286" height="300" viewBox="0 0 286 300" fill="none" xmlns="http://www.w3.org/2000/svg">
<g clip-path="url(#clip0_6955_13759)">
<path fill-rule="evenodd" clip-rule="evenodd" d="M164.058 0C161.071 14.4015 154.221 42.4106 150.224 58.4158C120.793 76.3643 83.3641 114.98 62.8798 140.728C39.664 169.911 -8.25362 207.594 1.22484 229.329C12.1022 254.271 29.0133 267.558 53.238 278.9C61.8037 247.543 121.95 227.682 139.792 215.038C143.827 212.179 146.825 209.552 148.629 204.72C150.433 199.888 138.077 185.404 142.803 173.31C147.941 160.163 164.496 144.346 181.623 144.346C167.922 148.159 155.362 164.165 153.65 175.025C151.703 187.368 170.342 201.726 163.094 213.805C161.487 216.381 158.129 220.282 154.635 223.057C131.915 241.097 74.8683 259.624 70.8047 280.791C80.3506 289.905 112.361 305.004 122.628 298.36C165.442 270.658 293.515 210.465 210.738 144.346C242.707 148.348 256.345 174.612 257.55 203.034C283.748 186.045 291.455 159.487 281.527 136.906C267.704 105.467 244.966 76.7075 210.738 58.4158C206.742 34.9796 190.757 11.5434 164.058 0ZM30.4024 203.872C32.3485 203.392 34.2731 217.476 31.4814 220.05C29.0478 222.295 19.6505 222.814 17.843 221.043C16.0229 219.259 26.7373 204.775 30.4024 203.872ZM126.298 111.149C131.098 109.392 136.616 116.261 137.665 121.293C138.877 127.107 132.964 134.336 130.815 136.727C129.273 138.442 118.826 153.876 99.4671 144.346C94.2782 141.792 114.259 115.559 126.298 111.149Z" fill="white"/>
<path d="M101.7 15.5447C110.503 19.387 132.896 33.2183 139.136 50.7414C124.824 60.0877 109.24 73.3858 94.6774 87.4554C97.9042 62.9554 100.477 29.7115 101.7 15.5447Z" fill="white"/>
</g>
<defs>
<clipPath id="clip0_6955_13759">
<rect width="286" height="300" fill="white"/>
</clipPath>
</defs>
</svg>
